# xmcd
#
# Track frame offsets:
# 150
# 15488
# 36312
# 50717
# 69609
# 97614
# 119998
# 139058
#
# Disc length: 2152 seconds
#
#
# Revision: 1
# Processed by: cddbd v1.5.2PL0 Copyright (c) Steve Scherf et al.
# Submitted via: FreeRIP 2.96 
#
DISCID=6f086608
DTITLE=Matty T. Wall [AUS] [WA] - Transpacific Blues Vol.1
DYEAR=2019
DGENRE=Blues Rock
TTITLE0=Boom Boom [feat. Dave Hole] [Transpacific Blues Vol.1] [ALBM] [Oct 2019] [MLVox]
TTITLE1=Hi Heel Sneakers [feat. Eric Gales] [Transpacific Blues Vol.1] [ALBM] [Oct 2019] [MLVox]
TTITLE2=Quicksand [feat. Kid Ramos] [Transpacific Blues Vol.1] [ALBM] [Oct 2019] [MLVox]
TTITLE3=She's Into Something [feat. Walter Trout] [Transpacific Blues Vol.1] [ALBM] [Oct 2019] [MLVox]
TTITLE4=Stormy Monday [Transpacific Blues Vol.1] [ALBM] [Oct 2019] [MLVox]
TTITLE5=Born Under a Bad Sign [feat. Kirk Fletcher] [Transpacific Blues Vol.1] [ALBM] [Oct 2019] [MLVox]
TTITLE6=I'm Tore Down [Transpacific Blues Vol.1] [ALBM] [Oct 2019] [MLVox]
TTITLE7=Crossroads [Transpacific Blues Vol.1] [ALBM] [Oct 2019] [MLVox]
EXTD=Matty T. Wall (Transpacific Blues Vol.1): Matty T. Wall: vox, gtr - Ric Whittle: drums - Stephen Walker: bass gtr | https://www.mattytwall.com/
EXTT0=
EXTT1=
EXTT2=
EXTT3=
EXTT4=
EXTT5=
EXTT6=
EXTT7=
PLAYORDER=
